<?xml version="1.0" standalone="no"?>
<!DOCTYPE svg PUBLIC "-//W3C//DTD SVG 20010904//EN"
 "http://www.w3.org/TR/2001/REC-SVG-20010904/DTD/svg10.dtd">
<svg version="1.0" xmlns="http://www.w3.org/2000/svg"
 width="1920.000000pt" height="1125.000000pt" viewBox="0 0 1920.000000 1125.000000"
 preserveAspectRatio="xMidYMid meet">
<metadata>
Created by potrace 1.16, written by Peter Selinger 2001-2019
</metadata>
<g transform="translate(0.000000,1125.000000) scale(0.100000,-0.100000)"
fill="#000000" stroke="none">
<path d="M0 6991 l0 -4260 33 -4 32 -4 -32 -1 -33 -2 0 -1360 0 -1360 1981 0
c1227 0 1978 4 1974 9 -3 6 7 6 27 0 20 -5 489 -9 1156 -9 1038 0 1125 1 1140
17 16 15 17 15 20 0 3 -16 188 -17 2748 -17 1819 0 2743 3 2739 10 -3 6 -1 10
4 10 6 0 11 -4 11 -10 0 -5 21 -10 46 -10 40 0 45 2 34 15 -11 13 -10 14 4 9
9 -3 16 -10 16 -15 0 -5 428 -9 1020 -9 787 0 1020 3 1020 12 0 9 3 9 12 0 9
-9 607 -12 2630 -12 l2618 0 0 5625 0 5625 -9600 0 -9600 0 0 -4259z m8878
1814 l-5 -295 34 0 c30 0 33 -3 33 -30 0 -16 4 -30 9 -30 5 0 15 -38 22 -85 8
-54 17 -85 25 -85 6 0 54 9 105 19 184 37 280 46 509 45 152 -1 260 -6 333
-17 447 -68 839 -231 1197 -500 112 -84 331 -299 419 -410 50 -64 61 -74 62
-55 1 13 5 5 8 -16 3 -22 12 -41 19 -44 9 -3 12 28 12 132 0 84 4 136 10 136
8 0 17 -249 11 -298 -1 -7 25 -57 58 -111 165 -266 287 -591 345 -918 l6 -33
-95 0 c-80 0 -96 3 -103 18 -5 9 -12 82 -16 161 -3 80 -8 147 -11 149 -2 2
-12 1 -22 -2 -15 -6 -15 -8 -3 -17 13 -8 13 -10 0 -19 -13 -9 -13 -12 3 -24
23 -18 22 -38 -3 -54 -11 -7 -20 -8 -20 -2 0 5 -7 7 -15 4 -21 -8 -19 -24 3
-24 14 0 15 -2 2 -10 -20 -13 -60 -13 -60 1 0 5 -4 8 -9 5 -5 -3 -8 0 -7 7 0
6 -3 12 -9 12 -5 0 -9 -6 -9 -12 1 -7 -2 -10 -6 -8 -16 10 -6 45 12 45 10 0
18 4 18 9 0 5 -16 9 -35 9 -34 0 -48 -12 -23 -20 9 -3 7 -10 -7 -24 -17 -17
-18 -17 -12 -1 4 12 1 17 -11 17 -14 0 -15 2 -2 10 22 14 6 22 -44 22 -43 0
-61 11 -33 21 9 3 9 7 -2 20 -12 15 -10 17 18 17 45 0 38 17 -9 22 l-40 4 0
-109 c0 -59 -3 -106 -7 -104 -5 3 -9 -6 -10 -19 -5 -52 -5 -53 -25 -41 -22 14
-24 31 -2 23 8 -3 12 -2 9 4 -3 6 -13 10 -21 10 -8 0 -14 4 -14 9 0 5 -8 12
-17 14 -10 3 -3 5 15 6 21 1 32 6 32 15 0 18 -20 32 -29 20 -8 -12 -42 -14
-35 -3 3 5 12 9 19 9 8 0 12 6 9 14 -3 8 -12 12 -20 9 -8 -3 -14 -2 -14 1 0 4
11 11 25 16 34 13 32 32 -2 24 -26 -7 -27 -6 -14 10 13 15 13 19 1 26 -11 7
-8 11 13 19 40 15 33 27 -13 23 l-40 -4 -1 -267 c-1 -146 -4 -331 -8 -410 l-6
-145 -27 -7 c-28 -7 -28 -7 -28 41 0 27 -3 57 -7 67 -6 16 -8 15 -14 -7 -6
-23 -7 -23 -8 -3 -1 17 -7 21 -31 21 -29 -1 -30 -3 -32 -52 l-2 -51 -3 53 c-4
50 -5 52 -34 52 -28 0 -29 -1 -31 -52 l-2 -53 -3 52 c-4 50 -5 52 -36 56 -18
2 10 5 61 5 59 1 91 6 87 12 -3 6 -27 10 -53 10 -26 0 -64 5 -84 10 l-38 11
-2 357 -3 357 -30 3 c-20 2 -38 14 -54 36 -19 24 -31 31 -48 28 -16 -3 -23 0
-23 11 0 8 5 17 10 19 6 2 -25 47 -67 100 -56 70 -84 97 -100 98 -14 0 -23 6
-23 15 0 8 5 15 10 15 6 0 -26 46 -72 102 -46 55 -103 127 -128 159 -25 31
-82 104 -126 161 -45 57 -83 112 -85 123 -3 11 -12 21 -22 23 -16 3 -17 -32
-18 -585 -1 -323 -2 -597 -3 -607 -1 -10 -9 -20 -20 -22 -15 -2 -17 2 -12 27
3 16 1 29 -4 29 -11 0 -1 32 14 43 7 5 5 11 -7 18 -14 8 -16 14 -6 25 7 9 8
18 2 27 -13 17 -9 90 5 95 17 5 15 22 -3 22 -8 0 -15 4 -15 9 0 5 7 16 15 25
18 18 19 27 3 24 -17 -4 -17 73 1 95 12 15 12 17 -2 17 -17 0 -17 32 1 38 7 2
12 8 12 13 0 6 -4 8 -9 4 -19 -11 -23 17 -5 36 16 17 16 19 1 19 -23 0 -24 88
-2 96 14 6 13 8 -2 19 -17 13 -17 14 1 34 17 19 17 21 3 21 -10 0 -17 5 -17
12 0 6 7 20 17 30 15 17 15 18 0 18 -21 0 -24 73 -3 92 11 11 11 15 -3 24 -14
11 -14 14 3 33 17 19 17 21 3 21 -10 0 -17 5 -17 12 0 6 7 20 17 30 15 17 15
18 0 18 -22 0 -22 26 1 39 16 10 16 10 0 11 -23 0 -23 18 -1 42 15 17 15 18
-2 18 -15 0 -16 3 -7 12 18 18 14 38 -8 38 -20 0 -20 -7 -21 -657 -1 -362 -4
-646 -6 -630 l-4 27 -95 0 c-87 0 -94 -1 -94 -20 0 -26 -17 -26 -25 1 -11 32
-59 22 -63 -13 -4 -37 -18 -36 -25 2 -6 25 -11 30 -37 30 -29 0 -30 -1 -30
-51 0 -27 -4 -48 -9 -45 -5 3 -12 -14 -15 -39 -6 -35 -10 -43 -23 -38 -11 4
-14 2 -11 -8 3 -8 11 -13 17 -11 6 1 11 -5 11 -13 0 -8 -5 -14 -11 -13 -6 2
-14 -3 -16 -9 -3 -7 2 -13 11 -13 9 0 16 -4 16 -9 0 -4 -10 -8 -22 -7 -20 1
-21 6 -22 101 -1 55 -5 106 -9 113 -5 7 -4 12 2 12 6 0 11 7 11 15 0 8 -7 15
-15 15 -13 0 -15 -22 -15 -142 0 -139 -5 -161 -20 -96 -4 18 -9 -174 -11 -427
-3 -522 -6 -510 -18 65 l-8 405 -3 -370 -4 -370 -7 240 c-3 132 -8 337 -10
455 -2 141 -5 33 -9 -310 -4 -289 -11 -540 -15 -557 l-7 -33 -94 0 c-90 0 -94
1 -95 23 l-2 22 -4 -22 c-3 -14 -12 -23 -22 -23 -14 0 -18 8 -17 42 1 37 -2
42 -24 48 -20 5 -26 13 -28 43 -3 29 -7 37 -23 37 -11 0 -19 7 -19 16 0 11 6
15 20 11 19 -5 20 0 19 156 0 89 -3 156 -6 150 -2 -7 -12 -13 -21 -12 -11 0
-12 2 -4 6 6 2 12 13 12 23 0 10 -6 21 -12 23 -8 4 -7 6 4 6 9 1 19 -5 21 -11
3 -7 5 7 5 32 0 25 -2 39 -5 33 -2 -7 -12 -13 -21 -12 -11 0 -12 2 -4 6 14 6
16 43 2 43 -5 0 -10 14 -10 30 0 21 5 30 16 30 11 0 14 -6 9 -20 -3 -11 -2
-28 4 -37 7 -13 10 145 11 517 l0 535 -30 1 c-22 1 -30 -3 -30 -16 0 -24 10
-31 31 -19 15 7 19 6 19 -6 0 -11 -7 -14 -25 -11 l-26 5 2 -99 c2 -55 0 -103
-4 -107 -4 -3 -7 -1 -7 5 0 7 -4 12 -10 12 -17 0 -11 -27 8 -32 14 -4 16 -14
14 -62 -3 -44 -7 -56 -18 -52 -9 4 -14 -2 -14 -15 0 -15 5 -19 15 -15 12 4 15
-4 14 -42 0 -26 -3 -41 -6 -34 -7 19 -23 14 -23 -8 0 -13 5 -18 15 -14 11 5
15 0 14 -17 0 -13 -3 -18 -6 -11 -7 17 -23 15 -23 -3 0 -18 -16 -20 -17 -2 -1
6 -4 64 -8 127 -3 63 -10 153 -15 200 -6 47 -10 205 -10 353 0 231 -2 267 -15
267 -17 0 -21 36 -4 42 11 4 14 414 3 443 -4 11 1 15 17 16 26 1 22 2 -105 38
-53 15 -56 17 -30 22 16 4 55 7 87 8 58 1 76 14 35 25 -13 3 -35 6 -50 6 -16
0 -28 5 -28 11 0 7 14 10 35 7 70 -8 33 18 -52 37 l-88 20 55 5 c69 6 81 31
23 46 -21 5 -39 15 -39 22 -1 6 -2 16 -3 20 0 5 -13 15 -28 22 -16 7 -23 15
-16 17 8 3 2 18 -17 45 -42 58 -51 99 -55 266 -4 184 -5 187 -56 189 l-39 2
-2 -82 c-1 -45 -3 -122 -4 -172 -2 -106 -5 -126 -15 -120 -3 3 -9 -5 -12 -18
-3 -12 -12 -43 -20 -69 -10 -32 -11 -46 -3 -44 6 1 1 -2 -11 -8 -24 -10 -32
-45 -10 -47 6 -1 -6 -7 -28 -13 -57 -18 -59 -44 -3 -48 l43 -3 -55 -18 c-93
-30 -87 -27 -66 -42 18 -14 18 -15 -9 -25 -39 -15 -26 -22 53 -30 l67 -7 -43
-8 c-24 -4 -53 -16 -65 -26 l-22 -18 23 -1 c21 0 22 -4 22 -86 0 -69 -5 -95
-24 -137 -14 -31 -27 -82 -31 -124 -5 -53 -11 -73 -21 -73 -8 0 -14 -7 -14
-15 0 -8 7 -15 15 -15 10 0 15 -11 15 -35 0 -24 -5 -35 -15 -35 -8 0 -15 -7
-15 -16 0 -10 6 -14 15 -10 20 7 19 -4 -2 -19 -16 -12 -9 -40 8 -30 5 4 9 1 9
-4 0 -6 -7 -11 -15 -11 -8 0 -15 -7 -15 -15 0 -8 7 -15 15 -15 8 0 15 -4 15
-10 0 -5 -7 -10 -15 -10 -8 0 -15 -7 -15 -15 0 -8 7 -15 15 -15 8 0 15 -4 15
-10 0 -5 -7 -10 -15 -10 -8 0 -15 -7 -15 -15 0 -8 7 -15 15 -15 22 0 18 -17
-5 -23 -11 -3 -20 0 -21 6 -1 7 -2 175 -2 374 -2 355 -2 362 18 366 14 3 12 5
-7 6 l-28 1 0 -327 0 -328 -170 0 c-110 0 -170 -3 -170 -10 0 -6 -3 -6 -8 1
-4 6 -23 11 -42 11 -19 0 -38 -5 -42 -11 -5 -8 -8 -7 -8 2 0 19 -30 14 -31 -5
-1 -16 -2 -16 -6 -1 -5 19 -74 23 -85 5 -6 -9 -8 -9 -8 1 0 6 -7 12 -15 12 -8
0 -15 -6 -16 -12 0 -10 -2 -10 -6 0 -7 18 -33 15 -34 -5 -1 -17 -2 -17 -6 0
-5 19 -43 24 -43 5 0 -9 -2 -10 -8 -2 -4 7 -19 12 -34 12 -26 0 -26 -2 -33
-87 -8 -110 -12 -130 -14 -63 0 28 -5 52 -11 52 -5 0 -10 -9 -10 -20 0 -13 -5
-17 -14 -14 -10 4 -16 -3 -19 -23 -2 -15 -5 14 -6 65 -1 83 -3 92 -20 92 -14
0 -20 -10 -25 -37 -3 -21 -6 -302 -6 -625 l0 -587 28 -4 c15 -2 2 -4 -28 -5
-30 0 -48 2 -40 5 8 3 18 11 22 17 4 6 8 158 8 338 0 308 -1 326 -18 321 -17
-4 -18 10 -20 219 -1 222 -7 298 -21 298 -11 0 -21 -415 -21 -842 0 -334 1
-358 18 -359 16 -1 16 -2 0 -6 -10 -2 -18 -10 -18 -16 0 -8 23 -11 72 -10 l73
1 -60 -9 c-71 -11 -85 -15 -85 -28 0 -6 29 -8 73 -5 52 4 68 3 57 -5 -8 -6
-34 -11 -57 -11 -49 0 -73 -8 -73 -24 0 -7 24 -11 72 -10 44 1 53 0 23 -3 -27
-2 -57 -6 -65 -10 -8 -3 -18 -5 -22 -5 -5 1 -8 -4 -8 -11 0 -9 19 -12 73 -9
55 2 68 0 54 -8 -9 -6 -22 -8 -27 -5 -6 3 -10 -2 -10 -13 0 -15 5 -18 25 -14
22 4 25 1 25 -27 0 -30 -1 -31 -47 -31 -27 0 -59 -3 -73 -6 -20 -4 -22 -3 -10
5 8 6 30 11 48 11 23 0 32 5 32 16 0 14 -8 16 -45 12 -25 -3 -45 -2 -45 3 0 5
7 9 15 9 8 0 15 7 15 16 0 10 -6 14 -15 11 -8 -4 -17 -2 -20 3 -3 5 -5 218 -5
475 l0 465 -168 -2 -167 -3 -3 -167 c-1 -101 -6 -168 -12 -168 -6 0 -10 31
-10 70 0 68 -1 70 -25 70 -14 0 -25 5 -25 10 0 6 -6 10 -14 10 -31 0 -28 57
10 200 75 286 232 601 432 864 101 133 332 364 457 457 199 149 445 285 639
354 l104 37 7 97 c4 53 14 111 22 130 13 28 17 91 20 330 3 163 6 302 8 309
14 44 17 -22 13 -283z m283 -1282 c1 -65 1 -121 0 -125 0 -4 -2 -36 -2 -70
l-2 -63 -14 33 c-7 18 -11 37 -8 41 3 5 -2 12 -11 15 -13 5 -14 9 -4 21 7 9 8
15 2 15 -6 0 -10 44 -11 110 -1 61 -4 117 -8 125 -4 11 3 15 26 15 l31 0 1
-117z m-2831 -413 c-13 -9 -13 -11 0 -20 13 -9 13 -11 0 -21 -11 -8 -12 -12
-2 -16 6 -2 12 -11 12 -19 0 -9 -4 -12 -10 -9 -5 3 -10 0 -10 -9 0 -8 6 -17
13 -19 9 -4 8 -8 -3 -16 -13 -10 -13 -12 0 -22 11 -8 12 -12 3 -16 -7 -2 -13
-11 -13 -19 0 -9 5 -12 10 -9 6 3 10 2 10 -4 0 -5 3 -16 6 -24 3 -8 -3 -22
-12 -32 -11 -10 -13 -19 -7 -23 6 -4 10 -22 11 -39 1 -28 -3 -33 -24 -33 -13
0 -24 -5 -24 -10 0 -6 6 -10 13 -9 29 4 37 -3 37 -31 0 -23 -5 -31 -25 -36
-25 -6 -36 -26 -12 -23 23 3 37 -1 37 -11 0 -5 -11 -10 -25 -10 -14 0 -25 -4
-25 -10 0 -5 9 -10 19 -10 27 0 35 -16 13 -25 -16 -6 -16 -7 2 -20 13 -10 17
-21 12 -39 -4 -15 -1 -26 7 -29 24 -8 -24 -47 -58 -47 l-32 0 -1 190 c-1 171
1 190 16 191 15 1 15 2 0 6 -22 5 -24 33 -3 33 8 0 15 4 15 10 0 5 -6 7 -14 4
-10 -4 -13 5 -13 35 0 31 4 41 16 42 14 1 14 2 0 6 -12 3 -17 15 -17 39 0 21
6 38 17 44 15 9 14 9 -1 10 -10 0 -18 7 -18 15 0 8 7 15 15 15 8 0 15 4 15 10
0 5 -7 7 -15 4 -8 -4 -15 -1 -15 5 0 6 19 11 48 11 34 0 43 -3 32 -10z m486
-285 c-9 -9 -42 -18 -81 -22 -36 -3 -65 -10 -65 -15 0 -4 32 -6 70 -2 61 5 69
4 64 -10 -3 -9 -15 -17 -25 -17 -10 -1 -28 -3 -39 -4 -11 -1 -31 -3 -45 -4
-14 0 -25 -4 -25 -8 0 -5 29 -6 65 -5 54 3 65 1 65 -12 0 -13 -12 -16 -65 -16
-37 0 -65 -4 -65 -10 0 -6 26 -10 60 -9 55 2 80 -4 69 -15 -6 -6 -57 -14 -96
-15 -18 -1 -33 -5 -33 -11 0 -6 24 -8 60 -6 33 3 62 0 66 -5 9 -16 0 -20 -52
-24 -27 -2 -55 -4 -61 -4 -7 -1 -13 -4 -13 -9 0 -4 29 -6 65 -4 42 2 65 -1 65
-8 0 -17 -18 -20 -119 -23 -68 -1 -95 1 -98 11 -3 8 8 12 36 12 23 0 41 5 41
10 0 6 -18 10 -41 10 -52 0 -48 24 4 28 20 2 37 8 37 13 0 6 -17 9 -37 7 -37
-3 -38 -2 -41 35 -3 35 3 43 31 38 4 0 7 4 7 9 0 6 -9 10 -21 10 -17 0 -20 5
-17 38 l3 37 90 6 c171 10 158 11 141 -6z m-2800 -1087 c-16 -2260 -17 -2328
-34 -2328 -12 0 -14 10 -8 61 3 33 7 626 8 1317 3 1714 5 1802 25 1802 14 0
15 -76 9 -852z m2311 688 c4 -4 -3 -9 -15 -13 -34 -8 -21 -27 24 -34 30 -5 32
-7 12 -8 -31 -1 -39 -21 -9 -21 25 0 38 -20 14 -21 -10 -1 -21 -1 -25 0 -5 0
-8 -6 -8 -15 0 -8 4 -13 8 -10 4 2 14 0 22 -5 12 -7 11 -10 -7 -15 -13 -4 -23
-10 -23 -14 0 -5 10 -11 23 -13 l22 -4 -22 -8 c-29 -9 -29 -22 -2 -30 15 -5
18 -9 9 -15 -7 -4 -9 -16 -5 -29 5 -15 2 -21 -9 -21 -21 0 -20 -10 2 -26 16
-12 16 -13 0 -14 -27 0 -31 -19 -6 -30 l23 -9 -22 -7 c-26 -7 -31 -24 -8 -24
21 0 19 -50 -2 -66 -17 -12 -17 -13 0 -19 25 -10 21 -25 -8 -25 -14 0 -25 -4
-25 -10 0 -5 11 -10 24 -10 35 0 46 -39 17 -58 -25 -17 -28 -32 -6 -32 12 0
14 -7 9 -27 -9 -36 -7 -34 -48 -40 -28 -4 -36 -1 -36 11 0 10 9 16 25 16 14 0
25 4 25 9 0 5 -10 8 -23 5 -22 -4 -24 -1 -25 56 -1 47 1 60 13 60 8 0 15 4 15
10 0 5 -7 7 -15 4 -9 -4 -15 0 -15 10 0 9 7 16 15 16 8 0 15 5 15 10 0 6 -7
10 -15 10 -21 0 -19 30 3 31 15 1 15 2 1 6 -12 3 -17 15 -17 39 0 21 6 38 17
44 15 9 14 9 -1 10 -10 0 -18 7 -18 15 0 8 8 16 18 16 16 1 16 2 0 6 -10 2
-18 9 -18 15 0 6 8 17 18 24 16 13 16 13 0 14 -21 0 -23 11 -6 28 9 9 9 12 0
12 -7 0 -12 7 -12 15 0 8 7 15 16 15 8 0 12 5 9 10 -4 6 -11 8 -16 5 -17 -11
-9 18 9 31 16 13 16 13 0 14 -29 0 -21 30 7 30 14 0 25 4 25 9 0 4 -11 6 -25
3 -18 -3 -25 0 -25 12 0 9 7 16 15 16 8 0 15 4 15 10 0 5 -7 7 -15 4 -15 -6
-21 16 -9 29 8 8 61 3 71 -7z m5129 -191 c-4 -13 8 -15 79 -15 53 0 86 -4 91
-12 4 -7 3 -8 -4 -4 -9 5 -12 -11 -12 -58 l0 -66 -32 1 c-31 2 -31 2 -5 6 15
2 27 11 27 19 0 21 -66 19 -76 -3 -5 -10 -11 -83 -14 -163 l-6 -145 -2 173 -2
172 50 0 c37 0 50 4 50 15 0 11 -10 13 -50 8 -34 -4 -50 -2 -50 6 0 6 12 11
28 11 37 0 72 10 72 21 0 5 -25 9 -55 9 -79 0 -85 -13 -87 -232 -1 -134 -3
-155 -8 -93 l-6 80 -5 -80 c-3 -48 -6 -1 -7 120 -2 201 2 245 20 245 6 0 8 -7
4 -15z m-4646 -508 c0 -190 -4 -326 -9 -318 -5 7 -6 22 -4 32 5 16 0 19 -36
19 -30 0 -41 -4 -41 -15 0 -10 10 -15 32 -15 39 0 34 -5 -13 -13 l-36 -5 2
321 1 322 44 5 c25 3 48 4 53 2 4 -2 7 -153 7 -335z m-421 -984 c-1 -362 -4
-650 -6 -640 -2 9 -9 17 -14 17 -5 0 -9 7 -9 15 0 8 5 15 10 15 6 0 10 57 10
150 0 93 -4 150 -10 150 -5 0 -10 9 -10 20 0 11 5 20 10 20 6 0 10 67 10 180
0 173 -1 180 -20 180 -11 0 -20 7 -20 15 0 8 9 15 20 15 11 0 20 5 20 10 0 6
-4 10 -10 10 -5 0 -10 9 -10 20 0 11 5 20 10 20 7 0 10 51 9 140 0 104 -4 138
-12 134 -8 -5 -8 -2 1 7 6 7 12 35 12 62 0 45 -1 48 -22 43 l-23 -6 23 11 c15
8 22 21 22 41 0 15 2 28 5 28 3 0 5 -296 4 -657z m5489 -210 c-2 -742 -3 -755
-8 -290 -4 419 -7 489 -20 497 -10 7 -11 10 -2 10 6 0 12 7 12 15 0 8 -6 15
-12 16 -10 0 -10 2 0 6 17 7 15 30 -3 37 -20 7 -19 32 3 46 16 11 16 11 0 6
-22 -7 -25 19 -3 28 21 8 19 26 -2 27 -17 1 -17 2 0 6 21 5 23 33 2 33 -9 0
-15 9 -15 25 0 16 6 25 15 25 8 0 15 7 15 15 0 8 -6 15 -12 15 -7 0 -13 11
-13 25 0 14 6 25 13 25 19 0 14 30 -5 31 -17 1 -17 2 0 6 9 2 17 11 17 20 0 9
-6 13 -15 9 -8 -3 -15 -1 -15 4 0 6 7 10 15 10 8 0 15 7 15 15 0 9 -6 12 -17
9 -15 -5 -15 -3 2 11 17 14 18 17 5 25 -10 7 -11 10 -2 10 6 0 12 11 12 23 0
21 7 37 17 37 2 0 2 -350 1 -777z m60 -62 c4 -760 2 -839 -12 -844 -15 -6 -16
55 -17 676 0 375 0 736 -1 802 0 191 1 205 15 205 9 0 13 -176 15 -839z m-128
564 c0 -245 -1 -254 -18 -237 -10 9 -14 19 -10 20 13 6 9 22 -5 22 -7 0 -14
11 -15 25 -1 16 3 25 13 25 21 0 19 30 -2 31 -17 1 -17 2 0 6 22 6 22 33 0 33
-15 0 -14 2 3 16 16 13 16 15 2 10 -22 -7 -24 12 -3 20 16 7 21 34 6 34 -16 0
-20 41 -5 47 21 8 18 34 -3 27 -17 -5 -17 -5 0 9 9 8 17 17 17 21 0 3 -8 6
-17 6 -17 1 -17 1 0 11 22 13 22 29 0 29 -15 0 -14 2 3 15 16 13 17 16 4 25
-10 6 -11 10 -2 10 6 0 12 11 12 25 0 14 5 25 10 25 6 0 10 -92 10 -255z
m-9958 -118 c-7 -9 -13 -329 -18 -1010 -5 -657 -11 -997 -17 -997 -7 0 -8 301
-4 908 4 499 7 953 7 1010 0 97 1 102 21 102 16 0 19 -3 11 -13z m12213 -27
c-3 -5 -33 -12 -66 -16 -86 -10 -86 -27 0 -18 61 5 71 4 71 -10 0 -9 -7 -16
-15 -16 -8 0 -15 -4 -15 -10 0 -5 7 -10 15 -10 8 0 15 -7 15 -15 0 -9 -9 -15
-22 -15 -30 0 -68 -11 -68 -19 0 -3 20 -5 45 -3 35 3 45 1 45 -11 0 -10 -15
-17 -45 -21 -25 -4 -45 -12 -45 -17 0 -6 17 -8 45 -3 38 5 45 4 45 -10 0 -21
-9 -23 -92 -29 -54 -4 -68 -2 -68 9 0 8 14 17 30 21 37 7 40 22 4 20 -33 -2
-45 22 -15 30 25 6 28 21 4 19 -10 0 -18 6 -18 14 0 11 13 16 45 18 25 2 50 8
55 14 7 7 -7 9 -45 6 l-55 -3 0 32 c0 32 1 32 55 38 30 4 60 8 65 10 20 7 36
5 30 -5z m5 -300 c0 -11 -5 -19 -11 -17 -6 1 -14 -4 -17 -12 -3 -10 0 -12 12
-8 19 8 22 -13 4 -31 -10 -10 -10 -15 2 -22 25 -16 -1 -27 -79 -35 -58 -5 -72
-4 -69 7 3 7 26 17 51 22 61 12 61 25 0 18 -44 -5 -46 -4 -40 19 3 12 1 29 -5
36 -6 8 -9 15 -7 18 4 3 101 19 147 24 6 0 12 -8 12 -19z m0 -205 c0 -10 -11
-15 -35 -15 -23 0 -35 -5 -35 -14 0 -9 10 -12 35 -9 26 2 35 0 35 -11 0 -8 6
-17 13 -20 10 -5 10 -7 0 -12 -7 -3 -13 -23 -13 -45 0 -21 -1 -39 -2 -39 -2
-1 -36 -3 -75 -7 -63 -4 -73 -3 -73 11 0 13 11 16 54 16 59 0 86 7 86 22 0 5
-27 7 -70 2 -61 -6 -70 -4 -70 10 0 13 11 16 53 16 61 0 97 8 97 22 0 7 -27 8
-75 3 -65 -6 -75 -5 -75 9 0 12 10 16 35 16 19 0 35 5 35 10 0 6 -16 10 -35
10 -53 0 -47 28 8 33 95 8 107 7 107 -8z m-6330 -70 c0 -22 -5 -25 -50 -31
-27 -4 -50 -10 -50 -15 0 -5 8 -8 18 -7 9 1 32 0 50 0 28 -2 32 -5 32 -31 0
-25 -5 -30 -27 -33 -39 -4 -42 -28 -4 -28 17 0 31 -4 31 -10 0 -6 -30 -10 -70
-10 -65 0 -88 10 -57 24 10 5 10 7 0 12 -18 8 -16 61 2 68 8 3 15 10 15 16 0
5 -7 10 -15 10 -8 0 -15 4 -15 9 0 6 19 11 43 13 51 4 47 23 -6 23 -20 0 -37
3 -37 8 0 4 32 7 70 7 68 0 70 -1 70 -25z m361 -24 c-12 -8 -12 -11 1 -24 8
-8 25 -17 38 -19 37 -5 37 -28 1 -28 -28 0 -31 -3 -31 -30 l0 -30 -102 2 c-57
1 -82 3 -55 5 33 3 47 8 47 19 0 10 -12 14 -45 14 -25 0 -45 5 -45 10 0 13
-31 13 -50 -1 -11 -8 -12 -12 -2 -16 6 -2 12 -9 12 -14 0 -6 -4 -7 -10 -4 -5
3 -10 1 -10 -4 0 -6 -7 -11 -15 -11 -11 0 -15 12 -15 45 l0 45 45 -7 c31 -4
45 -2 45 6 0 7 26 11 75 11 59 0 75 3 75 15 0 11 -18 15 -77 18 -70 3 -67 3
27 5 65 1 100 -2 91 -7z m-3623 -116 c0 -40 -5 -58 -17 -66 -14 -9 -14 -10 2
-5 20 6 23 -14 5 -32 -8 -8 -9 -12 -1 -12 17 0 10 -243 -7 -248 -9 -3 -9 -6
-1 -12 7 -4 12 -15 12 -26 -1 -10 -1 -36 -1 -56 0 -21 -5 -38 -11 -38 -6 0 -9
8 -7 18 1 9 -1 22 -5 29 -14 22 -18 113 -4 113 8 0 9 2 1 8 -8 5 -11 60 -9
181 2 155 4 176 21 188 10 7 19 13 20 13 1 0 2 -25 2 -55z m12582 -682 c1
-137 3 -266 6 -288 6 -37 5 -38 -11 -25 -10 8 -20 14 -22 13 -10 -8 -123 -1
-123 7 0 6 7 10 15 10 8 0 15 5 15 10 0 6 -7 13 -15 16 -35 14 -10 24 55 24
56 0 70 3 70 15 0 12 -14 15 -70 15 -40 0 -70 4 -70 10 0 11 6 11 88 12 44 1
52 4 52 19 0 17 -9 19 -70 19 -40 0 -70 4 -70 10 0 6 30 10 70 10 56 0 70 3
70 15 0 12 -14 15 -70 15 -76 0 -97 17 -27 22 23 2 42 8 42 13 0 6 -19 11 -42
13 -67 5 -50 21 24 24 56 2 68 6 71 21 3 16 -3 18 -45 17 -75 -3 -93 -1 -93
10 0 6 7 10 15 10 8 0 15 7 15 15 0 8 -7 15 -15 15 -8 0 -15 5 -15 10 0 6 30
10 70 10 60 0 70 2 70 18 0 16 -8 17 -70 14 -47 -3 -70 -1 -70 7 0 6 16 12 35
12 19 1 44 3 55 4 11 1 27 3 35 4 8 0 15 8 15 16 0 12 -14 15 -70 15 -40 0
-70 4 -70 10 0 6 30 10 70 10 56 0 70 3 70 15 0 12 -15 15 -72 16 -63 2 -67 3
-33 9 22 4 57 8 78 9 l37 1 0 -247z m-8950 207 c0 -27 -3 -30 -30 -30 -42 0
-40 -27 3 -33 17 -2 -38 -4 -123 -4 -85 1 -131 2 -102 4 37 3 52 8 52 19 0 10
-13 14 -51 14 -43 0 -49 2 -40 14 6 7 9 21 5 30 -5 14 9 16 140 16 l146 0 0
-30z m4925 -845 l0 -70 -42 -6 c-24 -3 -43 -2 -43 3 0 14 -48 8 -54 -7 -4 -12
6 -15 64 -15 71 0 91 -10 69 -36 -9 -11 -9 -18 -1 -26 20 -20 13 -27 -20 -23
-18 3 -63 7 -101 9 -75 5 -87 10 -87 34 0 13 2 14 8 4 6 -8 41 -15 95 -18 74
-5 87 -4 87 9 0 10 -8 15 -20 14 -11 -1 -20 -6 -20 -12 0 -5 -4 -5 -8 2 -4 6
-33 13 -64 14 -48 2 -62 7 -85 31 -22 23 -23 28 -10 28 10 0 20 7 23 15 4 8
17 15 30 15 33 0 30 13 -7 27 -39 15 -29 37 12 28 22 -5 29 -3 29 9 0 11 -9
16 -29 16 -30 0 -46 12 -34 24 4 4 52 5 107 4 l101 -3 0 -70z m3215 35 c0 -5
-4 -10 -10 -10 -5 0 -10 -7 -10 -15 0 -8 5 -15 10 -15 6 0 10 -7 10 -15 0 -8
-4 -15 -10 -15 -5 0 -10 -7 -10 -15 0 -8 5 -15 10 -15 14 0 12 -27 -2 -34 -7
-3 22 -2 65 1 53 4 77 2 77 -5 0 -8 -46 -12 -142 -14 l-143 -3 -1 -73 c-1 -40
-7 -79 -14 -87 -9 -11 -9 -15 -1 -15 6 0 11 -5 11 -11 0 -6 -6 -9 -12 -6 -7 2
-13 11 -13 20 0 8 -4 19 -8 23 -11 11 -9 21 9 38 12 12 12 16 2 16 -10 0 -10
2 1 9 12 8 12 12 -3 26 -11 11 -16 29 -14 49 l3 31 66 -3 c62 -4 67 -3 72 20
4 12 4 47 0 76 l-6 52 32 0 c17 0 31 -4 31 -10z m-337 -130 c-5 -19 -14 -20
-254 -20 l-249 0 0 -37 0 -38 -65 3 c-56 3 -65 6 -65 23 0 10 5 19 10 19 6 0
10 5 10 11 0 5 -4 7 -10 4 -5 -3 -10 1 -10 9 0 14 27 16 213 17 116 1 249 1
293 -1 63 -1 85 2 95 14 20 22 38 20 32 -4z"/>
<path d="M11607 6993 c-4 -91 -7 -226 -7 -299 0 -118 -2 -133 -17 -137 -10 -3
31 -5 90 -6 70 -1 106 3 102 9 -3 6 -19 10 -34 10 -31 0 -34 8 -48 130 -2 25
-10 63 -16 85 l-10 40 -7 -30 -7 -30 -8 28 c-4 15 -5 36 -2 47 3 11 -1 21 -11
25 -12 4 -13 8 -5 13 8 5 11 25 8 52 -2 25 -7 85 -10 135 -4 49 -8 91 -9 93
-2 1 -6 -73 -9 -165z"/>
<path d="M8018 7033 c-82 -2 -148 -7 -148 -12 0 -8 268 -21 448 -21 93 0 130
10 85 24 -29 8 -228 13 -385 9z"/>
</g>
</svg>
