<?xml version="1.0" standalone="no"?>
<!DOCTYPE svg PUBLIC "-//W3C//DTD SVG 20010904//EN"
 "http://www.w3.org/TR/2001/REC-SVG-20010904/DTD/svg10.dtd">
<svg version="1.0" xmlns="http://www.w3.org/2000/svg"
 width="331.000000pt" height="152.000000pt" viewBox="0 0 331.000000 152.000000"
 preserveAspectRatio="xMidYMid meet">
<metadata>
Created by potrace 1.16, written by Peter Selinger 2001-2019
</metadata>
<g transform="translate(0.000000,152.000000) scale(0.100000,-0.100000)"
fill="#000000" stroke="none">
<path d="M0 760 l0 -760 1655 0 1655 0 0 760 0 760 -1655 0 -1655 0 0 -760z
m2037 641 c166 -84 213 -304 98 -454 -72 -94 -191 -130 -306 -92 -73 25 -149
101 -174 174 -52 157 27 332 175 385 59 21 152 16 207 -13z m-967 -251 l0
-269 148 -3 c123 -3 147 -5 147 -18 0 -13 -25 -15 -165 -15 l-165 0 -3 275
c-1 151 0 280 3 287 2 7 11 13 20 13 13 0 15 -34 15 -270z m1409 25 c57 -135
107 -245 110 -245 7 0 18 25 111 248 31 73 48 102 61 102 12 0 35 -46 90 -180
40 -99 76 -177 80 -172 4 4 46 99 93 212 48 113 94 222 103 243 15 34 35 47
46 30 9 -14 -229 -568 -244 -568 -8 0 -44 72 -89 177 -41 98 -77 178 -80 178
-3 0 -39 -80 -81 -178 -44 -104 -81 -177 -89 -177 -8 0 -45 76 -92 185 -85
199 -158 377 -158 385 0 3 8 5 18 5 14 0 41 -54 121 -245z m-1524 -522 c78
-199 204 -546 200 -554 -15 -23 -32 -3 -58 66 l-28 75 -134 0 -134 0 -28 -75
c-25 -69 -43 -89 -57 -66 -6 10 188 537 206 558 14 18 25 16 33 -4z m2255 -5
c0 -6 -45 -72 -100 -146 l-100 -137 0 -138 c0 -126 -2 -138 -17 -135 -16 3
-18 19 -21 142 l-3 138 -68 91 c-144 194 -145 197 -113 197 16 -1 40 -29 147
-179 28 -39 52 -71 55 -71 3 0 35 39 70 88 98 134 131 173 141 167 5 -4 9 -11
9 -17z m-652 -5 c-3 -15 -17 -18 -101 -21 l-97 -3 0 -269 c0 -233 -2 -270 -15
-270 -13 0 -15 37 -15 270 l0 270 -77 0 c-91 0 -123 7 -123 26 0 12 39 14 216
14 200 0 215 -1 212 -17z"/>
<path d="M1835 1374 c-52 -19 -121 -87 -141 -140 -11 -30 -15 -65 -13 -117 4
-61 10 -83 34 -123 44 -71 101 -106 184 -112 45 -3 77 0 101 10 170 72 213
296 81 428 -68 68 -156 87 -246 54z"/>
<path d="M927 572 c-3 -9 -26 -71 -52 -137 -26 -66 -49 -128 -52 -137 -5 -16
5 -18 111 -18 64 0 116 4 116 8 0 4 -21 62 -46 127 -26 66 -49 130 -51 143 -7
29 -19 36 -26 14z"/>
</g>
</svg>
